<?xml version="1.0" encoding="utf-8"?>
<!-- Generator: Adobe Illustrator 20.1.0, SVG Export Plug-In . SVG Version: 6.00 Build 0)  -->
<svg version="1.1"
	 id="Layer_1" xmlns:cc="http://creativecommons.org/ns#" xmlns:dc="http://purl.org/dc/elements/1.1/" xmlns:inkscape="http://www.inkscape.org/namespaces/inkscape" xmlns:rdf="http://www.w3.org/1999/02/22-rdf-syntax-ns#" xmlns:sodipodi="http://sodipodi.sourceforge.net/DTD/sodipodi-0.dtd" xmlns:svg="http://www.w3.org/2000/svg"
	 xmlns="http://www.w3.org/2000/svg" xmlns:xlink="http://www.w3.org/1999/xlink" x="0px" y="0px" viewBox="0 0 100 125"
	 style="enable-background:new 0 0 100 125;" xml:space="preserve">
<style type="text/css">
	.st0{fill:#F9B24B;}
</style>
<g transform="translate(0,-952.36218)">
	<path class="st0" d="M50,969.4c-0.6,0-1.2,0.2-1.8,0.6l-38,30c-1,1-1.7,3.1-0.7,4.3c1,1.3,3.1,1.5,4.3,0.4L50,976.2l36.2,28.5
		c1.2,1.1,3.4,0.9,4.3-0.4c0.8-1.2,0.6-3.4-0.7-4.3L76,989v-16.7c0-1.7-1.3-3-3-3h-8c-1.7,0-3,1.3-3,3v5.7l-10.2-8
		C51.2,969.5,50.6,969.4,50,969.4z M68,975.4h2v9l-2-1.6V975.4z M26,998.6l-6,4.8v29c0,1.7,1.3,3,3,3h19c1.7,0,3-1.3,3-3v-12
		c0-2.8,2.2-5,5-5s5,2.2,5,5v12c0,1.7,1.3,3,3,3h19c1.7,0,3-1.3,3-3v-29l-6-4.8v30.7H61v-9c0-6-5-11-11-11s-11,5-11,11v9H26V998.6
		L26,998.6z"/>
</g>
</svg>
