<?xml version="1.0" encoding="utf-8"?>
<!-- Generator: Adobe Illustrator 20.1.0, SVG Export Plug-In . SVG Version: 6.00 Build 0)  -->
<svg version="1.1"
	 id="Layer_1" xmlns:cc="http://creativecommons.org/ns#" xmlns:dc="http://purl.org/dc/elements/1.1/" xmlns:inkscape="http://www.inkscape.org/namespaces/inkscape" xmlns:rdf="http://www.w3.org/1999/02/22-rdf-syntax-ns#" xmlns:sodipodi="http://sodipodi.sourceforge.net/DTD/sodipodi-0.dtd" xmlns:svg="http://www.w3.org/2000/svg"
	 xmlns="http://www.w3.org/2000/svg" xmlns:xlink="http://www.w3.org/1999/xlink" x="0px" y="0px" viewBox="0 0 100 125"
	 style="enable-background:new 0 0 100 125;" xml:space="preserve">
<style type="text/css">
	.st0{fill:#F9B24B;}
</style>
<g transform="translate(0,-952.36218)">
	<path class="st0" d="M7.7,962.4c-1.5,0.2-2.7,1.5-2.7,3v50c0,1.7,1.3,3,3,3h21c1.7,0,3-1.3,3-3s-1.3-3-3-3h-0.1H11v-44h78v44H38
		c-1.2,0-2.4,0.8-2.8,1.9l-4.7,12.1H28c-0.1,0-0.2,0-0.3,0c-1.5,0.2-2.7,1.5-2.7,3v10c0,1.7,1.3,3,3,3h44c1.7,0,3-1.3,3-3v-10
		c0-1.7-1.3-3-3-3h-2.5l-3.1-8H92c1.7,0,3-1.3,3-3v-50c0-1.7-1.3-3-3-3H8C7.9,962.4,7.8,962.4,7.7,962.4z M40.1,1018.4h19.8l3.1,8
		H37L40.1,1018.4z M31,1032.4h38v4H31V1032.4z"/>
</g>
</svg>
