<?xml version="1.0" encoding="utf-8"?>
<!-- Generator: Adobe Illustrator 20.1.0, SVG Export Plug-In . SVG Version: 6.00 Build 0)  -->
<svg version="1.1" id="Layer_1" xmlns="http://www.w3.org/2000/svg" xmlns:xlink="http://www.w3.org/1999/xlink" x="0px" y="0px"
	 viewBox="0 0 48 60" style="enable-background:new 0 0 48 60;" xml:space="preserve">
<style type="text/css">
	.st0{fill:#F9B24B;}
</style>
<path class="st0" d="M14.4,43.8c-0.9,0-1.6-0.5-2-1.3c-0.3-0.8-0.2-1.7,0.4-2.3l3.4-3.4v-0.1l-5-5h-0.1l0,0l-3.4,3.4
	c-0.6,0.6-1.5,0.8-2.3,0.4c-0.8-0.3-1.3-1.1-1.3-2c0.1-2.7,1.2-5.2,3.1-7.1c2.7-2.5,6.5-3.4,10.1-2.2c0.1,0,0.1,0,0.1,0l6.7-6.7
	v-0.1c-1.2-3.6-0.3-7.6,2.4-10.3c1.8-1.8,4.3-2.9,6.9-2.9c0.9,0,1.7,0.5,2,1.3s0.2,1.7-0.4,2.3l-3.4,3.4v0.1l5,5
	c0,0,0.2-0.1,0.5-0.3l3-3c0.6-0.6,1.5-0.8,2.3-0.4c0.8,0.3,1.3,1.1,1.3,2c-0.1,2.7-1.2,5.2-3.1,7.1c-2.7,2.5-6.5,3.4-10.1,2.2
	c-0.1,0-0.1,0-0.1,0l-6.7,6.7l0,0v0.1c1.2,3.6,0.3,7.6-2.4,10.3C19.5,42.7,17.1,43.8,14.4,43.8C14.5,43.8,14.4,43.8,14.4,43.8z
	 M11.2,29.7c0.6,0,1.1,0.2,1.5,0.6l5,5c0.8,0.8,0.8,2.2,0,3l-3.4,3.4c0,0,0,0,0,0.1s0.1,0.1,0.1,0.1c2.1,0,4-0.9,5.5-2.4
	c2.2-2.2,2.9-5.3,2-8.3c-0.3-0.8-0.1-1.6,0.5-2.2l6.7-6.7c0.6-0.6,1.4-0.7,2.2-0.5c2.9,0.9,6,0.3,8.1-1.8c1.6-1.5,2.5-3.5,2.5-5.7
	c0,0,0-0.1-0.1-0.1l-3.1,3.1c-0.5,0.5-1.1,0.8-1.7,0.9c-0.6,0.1-1.2-0.1-1.7-0.6l-5-5c-0.8-0.8-0.8-2.2,0-3l3.4-3.4c0,0,0,0,0-0.1
	S33.6,6,33.6,6c-2.1,0-4,0.9-5.5,2.4c-2.2,2.2-2.9,5.3-2,8.3c0.3,0.8,0.1,1.6-0.5,2.2l-6.7,6.7c-0.6,0.6-1.4,0.7-2.2,0.5
	c-2.9-0.9-6-0.3-8.1,1.8c-1.6,1.5-2.5,3.5-2.5,5.7c0,0,0,0.1,0.1,0.1l3.5-3.4C10.1,29.9,10.6,29.7,11.2,29.7z M23.1,29.8L23.1,29.8
	L23.1,29.8z"/>
</svg>
